<?xml version="1.0" encoding="UTF-8"?>
<!DOCTYPE svg PUBLIC "-//W3C//DTD SVG 1.1//EN" "http://www.w3.org/Graphics/SVG/1.1/DTD/svg11.dtd">
<svg xmlns="http://www.w3.org/2000/svg" version="1.1" width="144px" height="144px" style="shape-rendering:geometricPrecision; text-rendering:geometricPrecision; image-rendering:optimizeQuality; fill-rule:evenodd; clip-rule:evenodd" xmlns:xlink="http://www.w3.org/1999/xlink">
<g><path style="opacity:0.919" fill="#00bef0" d="M 39.5,-0.5 C 45.5,-0.5 51.5,-0.5 57.5,-0.5C 73.5343,8.10375 77.701,20.7704 70,37.5C 59.1057,49.8966 46.6057,51.7299 32.5,43C 20.5,30 20.5,17 32.5,4C 34.8981,2.47576 37.2314,0.97576 39.5,-0.5 Z"/></g>
<g><path style="opacity:0.874" fill="#00bef0" d="M 94.5,7.5 C 111.112,6.60659 117.945,14.2733 115,30.5C 110.053,38.7171 102.886,41.5505 93.5,39C 82.668,32.2373 80.668,23.4039 87.5,12.5C 89.7243,10.566 92.0576,8.89938 94.5,7.5 Z"/></g>
<g><path style="opacity:0.903" fill="#00bef0" d="M 93.5,52.5 C 106.539,50.5997 115.706,55.5997 121,67.5C 123.788,81.4291 118.621,90.9291 105.5,96C 86.1571,97.6564 76.9905,88.8231 78,69.5C 80.256,61.0814 85.4227,55.4147 93.5,52.5 Z"/></g>
<g><path style="opacity:0.893" fill="#00bef0" d="M 56.5,143.5 C 51.5,143.5 46.5,143.5 41.5,143.5C 29.0888,136.316 26.2555,126.316 33,113.5C 42.1165,104.143 51.9499,103.31 62.5,111C 71.7013,124.011 69.7013,134.844 56.5,143.5 Z"/></g>
</svg>
