<?xml version="1.0" standalone="no"?>
<!DOCTYPE svg PUBLIC "-//W3C//DTD SVG 20010904//EN"
 "http://www.w3.org/TR/2001/REC-SVG-20010904/DTD/svg10.dtd">
<svg version="1.0" xmlns="http://www.w3.org/2000/svg"
 width="261.000000pt" height="53.000000pt" viewBox="0 0 261.000000 53.000000"
 preserveAspectRatio="xMidYMid meet">

<g transform="translate(0.000000,53.000000) scale(0.100000,-0.100000)"
fill="#000000" stroke="none">
<path d="M30 514 c0 -6 8 -18 18 -27 17 -15 58 -17 384 -17 l366 0 5 22 c7 26
3 33 -13 23 -6 -4 -9 -13 -6 -21 5 -12 -51 -14 -359 -14 l-364 0 -15 22 c-9
12 -16 18 -16 12z"/>
<path d="M860 506 c0 -3 -18 -91 -40 -196 -22 -105 -40 -195 -40 -201 0 -5 17
-9 38 -9 l38 0 14 67 c22 116 16 110 115 114 85 4 87 5 121 41 28 32 34 45 34
84 0 37 -5 51 -29 75 -29 29 -31 29 -140 29 -61 0 -111 -2 -111 -4z m188 -68
c17 -17 15 -58 -5 -80 -12 -14 -31 -18 -76 -18 l-59 0 6 38 c13 72 13 72 70
72 28 0 57 -5 64 -12z"/>
<path d="M2067 413 c-3 -5 -8 -29 -12 -55 -8 -52 -11 -54 -39 -33 -42 32 -121
4 -151 -54 -17 -34 -20 -113 -5 -141 5 -10 26 -24 45 -30 29 -9 41 -9 66 4 37
19 42 20 34 6 -4 -6 6 -10 24 -10 35 0 32 -7 66 160 14 69 28 133 31 143 4 13
-1 17 -25 17 -16 0 -32 -3 -34 -7z m-46 -144 c27 -51 -25 -138 -75 -125 -42
10 -47 86 -9 129 23 24 70 22 84 -4z"/>
<path d="M2160 395 c0 -21 5 -25 29 -25 23 0 30 5 33 25 5 23 2 25 -28 25 -30
0 -34 -3 -34 -25z"/>
<path d="M2275 388 c-2 -7 -5 -22 -7 -33 -2 -12 -12 -21 -26 -23 -25 -4 -32
-42 -7 -42 18 0 18 -15 1 -95 -17 -79 -9 -95 49 -95 42 0 45 2 45 26 0 14 -4
23 -8 20 -4 -2 -14 -1 -21 3 -10 6 -10 21 0 74 11 60 15 66 38 69 33 4 43 38
10 38 -19 0 -21 4 -16 35 5 33 4 35 -24 35 -16 0 -31 -6 -34 -12z"/>
<path d="M214 315 l23 -25 267 0 266 0 0 25 0 25 -290 0 -289 0 23 -25z m546
0 c0 -13 -35 -15 -259 -15 -218 0 -261 2 -271 15 -11 13 19 15 259 15 234 0
271 -2 271 -15z"/>
<path d="M1174 330 c-25 -10 -56 -49 -48 -62 7 -11 54 -10 54 2 0 16 41 32 67
25 18 -4 23 -11 21 -28 -3 -18 -13 -23 -71 -33 -73 -12 -92 -24 -102 -65 -10
-41 23 -74 74 -73 22 1 48 7 56 14 10 9 15 9 15 1 0 -6 13 -11 28 -11 28 0 29
2 46 93 9 51 14 99 11 108 -13 34 -99 50 -151 29z m74 -151 c-6 -17 -21 -34
-35 -40 -31 -12 -29 -12 -47 7 -24 24 -4 52 42 57 20 2 40 4 44 5 4 1 2 -12
-4 -29z"/>
<path d="M1394 307 c-31 -28 -37 -41 -42 -86 -6 -65 10 -97 54 -111 27 -9 40
-8 64 3 35 18 37 13 10 -31 -23 -37 -51 -41 -81 -11 -21 21 -60 23 -66 2 -7
-19 33 -51 72 -59 48 -9 111 11 130 39 12 19 65 235 65 267 0 5 -13 10 -30 10
-21 0 -30 -5 -30 -16 0 -13 -5 -12 -26 5 -39 31 -78 27 -120 -12z m120 -33
c27 -71 -45 -159 -92 -112 -19 19 -14 73 9 102 23 30 73 36 83 10z"/>
<path d="M1674 326 c-28 -13 -44 -33 -44 -57 0 -17 47 -9 65 11 21 24 58 26
75 5 20 -24 -4 -42 -65 -50 -70 -8 -105 -35 -105 -80 0 -18 6 -37 13 -43 23
-19 71 -23 100 -8 15 8 27 11 27 5 0 -5 13 -9 29 -9 27 0 30 4 41 52 22 101
24 152 6 167 -24 20 -105 24 -142 7z m86 -130 c0 -19 -31 -54 -50 -57 -35 -4
-50 2 -50 20 0 24 18 38 55 44 17 2 33 5 38 6 4 0 7 -5 7 -13z"/>
<path d="M2433 326 c-44 -20 -73 -70 -73 -126 0 -57 20 -87 68 -100 100 -26
187 60 168 164 -4 18 -15 41 -26 51 -26 23 -97 29 -137 11z m98 -57 c27 -51
-25 -138 -75 -125 -42 10 -47 86 -9 129 23 24 70 22 84 -4z"/>
<path d="M2126 238 c-10 -51 -21 -103 -23 -116 -5 -19 -1 -22 26 -22 17 0 31
1 31 3 0 1 11 53 24 115 l24 112 -32 0 -32 0 -18 -92z"/>
<path d="M373 154 c3 -3 82 -5 176 -4 151 1 171 -1 171 -15 0 -14 -16 -16
-130 -13 -72 2 -130 0 -130 -4 0 -5 61 -8 135 -8 l135 0 0 25 0 25 -182 0
c-100 0 -179 -3 -175 -6z"/>
<path d="M405 120 c3 -5 16 -10 28 -9 21 0 21 1 2 9 -28 12 -37 12 -30 0z"/>
</g>
</svg>
