<?xml version="1.0"?>
<svg xmlns="http://www.w3.org/2000/svg" xmlns:xlink="http://www.w3.org/1999/xlink" xmlns:svgjs="http://svgjs.com/svgjs" version="1.1" width="512" height="512" x="0" y="0" viewBox="0 0 512 512" style="enable-background:new 0 0 512 512" xml:space="preserve" class=""><g><linearGradient xmlns="http://www.w3.org/2000/svg" id="SVGID_1_" gradientTransform="matrix(8 0 0 -8 287 5250.118)" gradientUnits="userSpaceOnUse" x1="-3.875" x2="-3.875" y1="593.265" y2="655.265"><stop stop-opacity="1" stop-color="#9f2fff" offset="0.06177606177606178"/><stop stop-opacity="1" stop-color="#0bd389" offset="1"/></linearGradient><path xmlns="http://www.w3.org/2000/svg" d="m296 465.224c0-58.288-37.576-107.896-91.672-124.616.896-1.44 1.616-2.984 2.192-4.608h13.536c15.416 0 27.944-12.528 27.944-27.936v-36.464c23.568 15.76 51.392 24.4 80 24.4 79.4 0 144-64.6 144-144s-64.6-144-144-144c-68.752 0-127.672 49.032-141.048 115.488-7.608-2.232-15.624-3.488-23.944-3.488h-22.016c-46.864 0-84.992 38.128-84.992 84.992 0 10.936 2.28 21.864 6.4 32-3.968 5.336-6.4 11.864-6.4 19.008 0 17.648 14.352 32 32 32h.72c2.728 16.136 13.488 29.552 28.048 35.952l-3.272 13.064c-61.44 11.96-105.496 65.056-105.496 128.208v38.776h288zm-105.016-22.656-20.416 6.808 17.008-27.216zm-48.88-58.136-15.688 23.536-6.696-10.704-5.488-43.952c.848-.184 1.704-.344 2.56-.512zm9.896 13.992 16.288 24.432-16.288 26.048-16.288-26.056zm40-70.424c0 4.416-3.584 8-8 8h-16c-4.416 0-8-3.584-8-8s3.584-8 8-8h16c4.416 0 8 3.584 8 8zm-4.784 24.792c.856.168 1.712.328 2.56.512l-5.488 43.952-6.696 10.704-15.688-23.536zm-84.28 39.208h-15.88l-3.432-27.432c4.8-2.6 9.824-4.848 15.04-6.768zm13.48 30.16 17.008 27.216-20.408-6.808zm88.92-64.368c5.216 1.92 10.24 4.168 15.04 6.768l-3.44 27.44h-15.88zm14.728-37.792h-13.536c-.904-2.528-2.208-4.832-3.856-6.888 6.608-6.92 10.976-15.64 12.576-25.112h.752c5.856 0 11.272-1.696 16-4.448v24.512c0 6.584-5.352 11.936-11.936 11.936zm-4.064-80c8.824 0 16 7.176 16 16s-7.176 16-16 16zm16.408-96c1.704-20.464 9.808-39.104 22.36-53.928l11.008 11.008 11.312-11.312-11.008-11.008c14.816-12.544 33.456-20.656 53.92-22.352v15.592h16v-15.592c20.464 1.704 39.104 9.808 53.928 22.36l-11.008 11.008 11.312 11.312 11.008-11.008c12.552 14.816 20.656 33.464 22.36 53.928h-15.6v16h15.592c-1.704 20.464-9.808 39.104-22.36 53.928l-11.008-11.008-11.312 11.312 11.008 11.008c-14.816 12.552-33.464 20.656-53.928 22.36v-15.608h-16v15.496c-20.128-1.664-38.808-9.496-53.896-22.288l10.976-10.976-11.312-11.312-11.048 11.048c-2.416-2.864-4.64-5.912-6.736-9.08-.024-16.488-4.832-31.84-13.016-44.88h13.04v-16h-15.592zm95.592-120c70.576 0 128 57.424 128 128s-57.424 128-128 128c-29.328 0-57.744-10.176-80.464-28.576-.776-5.36-2.84-10.272-5.936-14.432 1.312-3.232 2.432-6.52 3.336-9.896 21.048 23.368 50.92 36.904 83.064 36.904 61.76 0 112-50.24 112-112s-50.24-112-112-112c-57.44 0-104.856 43.48-111.216 99.24-4.528-3.712-9.464-6.92-14.688-9.64 10.704-60.56 63.776-105.6 125.904-105.6zm-256 232c0-8.824 7.176-16 16-16v32c-8.824 0-16-7.176-16-16zm21.472-47.592-5.472 1.824v13.768c-4.424 0-8.64.904-12.48 2.536-2.28-6.944-3.52-14.248-3.52-21.544 0-38.04 30.952-68.992 68.992-68.992h22.016c38.04 0 68.992 30.952 68.992 68.992 0 7.288-1.24 14.592-3.52 21.544-3.84-1.632-8.056-2.536-12.48-2.536v-16h-16c-20.592 0-40.448-5.552-57.904-16.128l8.304-11.072-12.8-9.6-8.824 11.76c-8.944 11.928-21.152 20.728-35.304 25.448zm10.528 71.592v-58.432c10.184-4.144 19.32-10.208 27.256-17.688 20.576 13.136 44.176 20.12 68.744 20.12v56c0 9.504-4.216 18.408-11.408 24.464-1.488-.288-3.016-.464-4.592-.464h-16c-7.064 0-13.36 3.128-17.76 8h-14.24c-17.648 0-32-14.352-32-32zm32 48h8c0 13.032 10.448 23.616 23.4 23.936l-15.4 19.256-23.28-29.104 3.568-14.28c1.232.096 2.456.192 3.712.192zm-112 137.224c0-36.968 17.264-69.928 44.72-90.944l4.216 33.72h29.616l-7.576 45.432 49.024 16.328v18.24h-72v-48h-16v48h-32zm256 22.776h-32v-48h-16v48h-72v-18.24l49.016-16.336-7.576-45.424h29.616l4.216-33.72c27.464 21.016 44.728 53.976 44.728 90.944zm-160-248c0-4.416 3.584-8 8-8s8 3.584 8 8-3.584 8-8 8-8-3.584-8-8zm48 0c0-4.416 3.584-8 8-8s8 3.584 8 8-3.584 8-8 8-8-3.584-8-8zm-16 56c-12.272 0-24.288-4.976-32.968-13.656l-4.688-4.688 11.312-11.312 4.688 4.688c5.704 5.704 13.592 8.968 21.656 8.968s15.952-3.264 21.656-8.968l4.688-4.688 11.312 11.312-4.688 4.688c-8.68 8.68-20.696 13.656-32.968 13.656zm176 128v-18.96l44.304-51.68c2.384-2.784 3.696-6.336 3.696-10 0-8.472-6.888-15.36-15.36-15.36h-1.28c-8.472 0-15.36 6.888-15.36 15.36v8.64h-16v-8.64c0-17.288 14.072-31.36 31.36-31.36h1.28c17.288 0 31.36 14.072 31.36 31.36 0 7.488-2.68 14.736-7.552 20.416l-37.92 44.224c15.864.016 44.192.016 45.36 0l.002 16zm136 0v-16h16v-16h-16v-80h-20.712l-43.288 77.928v18.072h48v16zm-46.848-32 30.848-55.52v55.52zm-89.152 72c0 13.232 10.768 24 24 24s24-10.768 24-24-10.768-24-24-24-24 10.768-24 24zm32 0c0 4.416-3.584 8-8 8s-8-3.584-8-8 3.584-8 8-8 8 3.584 8 8zm56 24c13.232 0 24-10.768 24-24s-10.768-24-24-24-24 10.768-24 24 10.768 24 24 24zm0-32c4.416 0 8 3.584 8 8s-3.584 8-8 8-8-3.584-8-8 3.584-8 8-8zm64-16c-13.232 0-24 10.768-24 24s10.768 24 24 24 24-10.768 24-24-10.768-24-24-24zm0 32c-4.416 0-8-3.584-8-8s3.584-8 8-8 8 3.584 8 8-3.584 8-8 8zm-152-296c10.416 0 19.216-6.712 22.528-16h25.472v-16h-25.472c-2.416-6.776-7.752-12.112-14.528-14.528v-41.472h-16v41.472c-9.288 3.312-16 12.112-16 22.528 0 13.232 10.768 24 24 24zm0-32c4.416 0 8 3.592 8 8s-3.584 8-8 8-8-3.592-8-8 3.584-8 8-8z" fill="url(#SVGID_1_)" data-original="url(#SVGID_1_)" style=""/></g></svg>
