<?xml version="1.0"?>
<svg xmlns="http://www.w3.org/2000/svg" xmlns:xlink="http://www.w3.org/1999/xlink" xmlns:svgjs="http://svgjs.com/svgjs" version="1.1" width="512" height="512" x="0" y="0" viewBox="0 0 511.998 511.998" style="enable-background:new 0 0 512 512" xml:space="preserve" class=""><g>
<path xmlns="http://www.w3.org/2000/svg" style="" d="M300.527,53.038c-14.512,17.408-72.128-2.256-72.128-2.256v5.152  c-20.72-6.624-38.128-4.976-38.128-4.976l3.728,5.808c-26.528-7.456-40.208,0-40.208,0c2.912,0.832,4.576,7.872,4.576,7.872  c-15.328,0-32.736,9.12-32.736,9.12c2.896,0,8.288,6.224,8.288,6.224c-17.424,2.896-29.024,12.016-29.024,12.016  c4.144,1.248,6.64,5.808,6.64,5.808c-12.864,3.312-23.632,10.768-23.632,10.768c4.144,0.832,2.08,9.12,2.08,9.12  c-10.368,3.328-17.008,10.784-17.008,10.784l4.56,4.976c-11.184,8.288-14.912,14.496-14.912,14.496l4.144,2.896  c0,0-9.536,4.144-12.016,12.016c-2.48,7.872-16.992,25.696-16.992,25.696c0.304,0.24,0.64,0.448,0.96,0.672  c53.552-16.56,184.512-62.368,262.192-135.136C300.687,53.422,300.527,53.038,300.527,53.038z" fill="#0eef51" data-original="#7fb241" class=""/>
<path xmlns="http://www.w3.org/2000/svg" style="" d="M38.719,189.246c12.928,9.184,33.44,8.032,33.44,8.032l-4.976,4.976  c14.912,4.144,30.256,0.832,30.256,0.832l-6.624,7.872c20.304,4.56,29.84-0.832,29.84-0.832l-5.392,6.224  c21.968,1.248,26.528-5.808,26.528-5.808l-3.728,5.808c16.16,0,22.384-8.288,22.384-8.288l0.832,4.56  c22.384-2.896,40.208-19.888,40.208-19.888l-0.416,7.04c11.184,0,16.576-14.928,16.576-14.928l3.312,6.624  c8.288-2.896,16.16-20.72,16.16-20.72l0.832,6.624c12.016-5.808,15.328-21.968,15.328-21.968l3.776,7.04  c7.92-5.808,11.136-21.968,11.136-21.968l6.224,3.728c4.56-7.456,4.976-19.488,4.976-19.488l6.224,1.68  c22.72-42.144,16.944-67.072,15.296-72.304C223.231,126.878,92.271,172.686,38.719,189.246z" fill="#0eef51" data-original="#8bc540" class=""/>
<path xmlns="http://www.w3.org/2000/svg" style="" d="M329.263,86.302c-0.112-0.336-0.224-0.656-0.32-0.992c-6.944-21.264-4.848-44.464,5.136-64.496  c0.944-1.888,1.84-3.792,2.656-5.584c2.448-5.36,0.112-11.68-5.2-14.192c-5.184-2.448-11.376-0.432-14.096,4.624  c0,0-7.984,24.8-12.272,30.016l-11.312,13.744c-3.344,2.736-32.048,35.28-58.688,65.728  c-50.88,58.16-90.496,125.328-116.384,198.144c-1.152,3.232-1.744,5.008-1.744,5.008c-4.656,3.488,6.4,6.4,16.288,5.232  c9.888-1.168,6.976-10.304,6.976-10.304c13.376-54.224,62.432-130.752,62.432-130.752c67.424-95.776,99.2-111.296,99.2-111.296  c7.552-5.232,14.608,22.672,14.608,22.672l42.544,185.424c4,22.096,5.584,33.936,5.584,33.936l0.64,18.448l23.328-15.424  C377.663,298.478,329.263,86.302,329.263,86.302z" fill="#7b5c45" data-original="#7b5c45" class=""/>
<g xmlns="http://www.w3.org/2000/svg">
	<path style="" d="M486.575,367.262c-7.6-32.544-32.256-58.896-66.528-58.896c-11.36,0-22.048,2.864-31.408,7.872   c-5.52,2.944-11.968,2.944-17.488,0c-9.36-5.008-20.048-7.872-31.408-7.872c-34.272,0-58.928,26.352-66.528,58.896   c-1.36,5.856-3.072,12.144-3.072,21.024c0,60.608,49.136,123.712,109.76,123.712c60.608,0,109.744-63.088,109.744-123.712   C489.647,379.406,487.935,373.118,486.575,367.262z" fill="#e11413" data-original="#d03f3e" class=""/>
	<path style="" d="M238.783,367.262c-7.6-32.544-32.256-58.896-66.528-58.896c-11.36,0-22.048,2.864-31.408,7.872   c-5.52,2.944-11.968,2.944-17.488,0c-9.36-5.008-20.048-7.872-31.408-7.872c-34.272,0-58.928,26.352-66.528,58.896   c-1.36,5.856-3.072,12.144-3.072,21.024c0,60.608,49.136,123.712,109.76,123.712c60.608,0,109.744-63.088,109.744-123.712   C241.855,379.406,240.143,373.118,238.783,367.262z" fill="#e11413" data-original="#d03f3e" class=""/>
</g>
<g xmlns="http://www.w3.org/2000/svg">
	
		<ellipse transform="matrix(-0.9586 -0.2848 0.2848 -0.9586 520.2669 815.8073)" style="" cx="319.446" cy="370.078" rx="13.776" ry="31.52" fill="#e14b4b" data-original="#e14b4b" class=""/>
	
		<ellipse transform="matrix(-0.9586 -0.2848 0.2848 -0.9586 20.6372 743.2487)" style="" cx="64.356" cy="370.124" rx="13.776" ry="31.52" fill="#e14b4b" data-original="#e14b4b" class=""/>
</g>
<g xmlns="http://www.w3.org/2000/svg">
</g>
<g xmlns="http://www.w3.org/2000/svg">
</g>
<g xmlns="http://www.w3.org/2000/svg">
</g>
<g xmlns="http://www.w3.org/2000/svg">
</g>
<g xmlns="http://www.w3.org/2000/svg">
</g>
<g xmlns="http://www.w3.org/2000/svg">
</g>
<g xmlns="http://www.w3.org/2000/svg">
</g>
<g xmlns="http://www.w3.org/2000/svg">
</g>
<g xmlns="http://www.w3.org/2000/svg">
</g>
<g xmlns="http://www.w3.org/2000/svg">
</g>
<g xmlns="http://www.w3.org/2000/svg">
</g>
<g xmlns="http://www.w3.org/2000/svg">
</g>
<g xmlns="http://www.w3.org/2000/svg">
</g>
<g xmlns="http://www.w3.org/2000/svg">
</g>
<g xmlns="http://www.w3.org/2000/svg">
</g>
</g></svg>
