<?xml version="1.0"?>
<svg xmlns="http://www.w3.org/2000/svg" xmlns:xlink="http://www.w3.org/1999/xlink" xmlns:svgjs="http://svgjs.com/svgjs" version="1.1" width="512" height="512" x="0" y="0" viewBox="0 0 512 512" style="enable-background:new 0 0 512 512" xml:space="preserve" class=""><g><defs xmlns="http://www.w3.org/2000/svg"><linearGradient id="linear-gradient" x1="235.307" y1="486" x2="235.307" y2="31.019" gradientUnits="userSpaceOnUse"><stop stop-opacity="1" stop-color="#2e8a98" offset="0.13127413127413126"/><stop stop-opacity="1" stop-color="#b074ee" offset="0.466"/><stop stop-opacity="1" stop-color="#d8a1dd" offset="0.752"/><stop stop-opacity="1" stop-color="#bae6ef" offset="1"/></linearGradient><linearGradient xmlns:xlink="http://www.w3.org/1999/xlink" id="linear-gradient-2" x1="255.993" y1="486" x2="255.993" y2="31.019" xlink:href="#linear-gradient"/></defs><title xmlns="http://www.w3.org/2000/svg">support time</title><path xmlns="http://www.w3.org/2000/svg" d="M319.684,196.467a6.985,6.985,0,0,0-7.608-6.333l-102.283,9.349-46.939-47a7,7,0,0,0-9.907,9.893L202.208,211.7a6.994,6.994,0,0,0,4.952,2.054q.318,0,.638-.029l105.553-9.649A7,7,0,0,0,319.684,196.467Z" style="fill:url(#linear-gradient)" fill=""/><path xmlns="http://www.w3.org/2000/svg" d="M473.254,351.979a103.452,103.452,0,0,0-2.515-100.115,101.572,101.572,0,0,0-71.924-49.613c0-.129,0-.26,0-.389,0-102.6-83.391-186.08-185.893-186.08S27.033,99.258,27.033,201.862s83.391,186.079,185.893,186.079a186.661,186.661,0,0,0,38.3-3.957,11.558,11.558,0,0,0,11.37,9.314h23.647v17.926a21.1,21.1,0,0,0,.787,42.194l.243,0,41.687-.638A6.974,6.974,0,0,0,334.1,450.4c4.481-.022,9.2-.042,13.326-.06h.034a7.9,7.9,0,0,1,7.679,5.988l8.7,34.6a7,7,0,0,0,6.788,5.293h96.836a7,7,0,0,0,6.764-8.8c-.162-.605-16.086-60.93-12.577-98.634C462.449,380.226,470.178,359.619,473.254,351.979Zm-81.915,22.947h-.228A24.4,24.4,0,0,1,366.77,350.91l-.053-3.916a24.345,24.345,0,0,1,24.116-24.672h.229A24.4,24.4,0,0,1,415.4,346.339l.053,3.915a24.347,24.347,0,0,1-24.117,24.672ZM41.033,201.862c0-94.885,77.111-172.08,171.893-172.08,94.491,0,171.41,76.723,171.882,171.208-.457-.011-.911-.027-1.372-.033-.419,0-.836-.007-1.254-.007A110.943,110.943,0,0,0,271.4,305.766c-.109,1.795-.156,15-.171,20.716L255.1,368.711a172.3,172.3,0,0,1-42.178,5.23C118.144,373.941,41.033,296.747,41.033,201.862ZM287.082,439.417a7.114,7.114,0,0,1-.24-14.225h34.705l.2,13.695Zm13.156-28.225V386.3a7,7,0,0,0-7-7H266.047l18.714-49.02a7.011,7.011,0,0,0,.461-2.48c.021-9.32.081-19.913.151-21.229a96.693,96.693,0,0,1,96.8-91.619c.365,0,.74,0,1.105.007.165,0,.33.009.494.012V309.02a38.346,38.346,0,0,0-31.05,38.164l.053,3.916a38.446,38.446,0,0,0,30.265,36.96l.077,8.207A27.892,27.892,0,0,1,355.5,424.416l-19.965.123-.094-6.448a7,7,0,0,0-7-6.9Zm160.447-65.386a6.546,6.546,0,0,0-.284.613c-1.178,2.91-11.546,28.786-12.688,41.065-2.943,31.613,6.367,76.007,10.8,94.734H376.087l-7.371-29.308a21.868,21.868,0,0,0-12.02-14.531,41.87,41.87,0,0,0,40.416-42.243l-.071-7.665a38.358,38.358,0,0,0,32.414-38.407l-.053-3.915a38.441,38.441,0,0,0-31.634-37.226V216.274A87.673,87.673,0,0,1,458.637,258.9,89.532,89.532,0,0,1,460.685,345.806Z" style="fill:url(#linear-gradient-2)" fill=""/></g></svg>
