<?xml version="1.0"?>
<svg xmlns="http://www.w3.org/2000/svg" xmlns:xlink="http://www.w3.org/1999/xlink" xmlns:svgjs="http://svgjs.com/svgjs" version="1.1" width="512" height="512" x="0" y="0" viewBox="0 0 128 128" style="enable-background:new 0 0 512 512" xml:space="preserve" class=""><g><linearGradient xmlns="http://www.w3.org/2000/svg" id="linear-gradient" gradientUnits="userSpaceOnUse" x1="99.339" x2="22.093" y1="111.566" y2="34.32"><stop stop-opacity="1" stop-color="#fb6255" offset="0"/><stop stop-opacity="1" stop-color="#3cfae0" offset="1"/></linearGradient><path xmlns="http://www.w3.org/2000/svg" d="m69.862 36.068a1.75 1.75 0 0 1 1.75-1.75h.708a1.75 1.75 0 0 1 0 3.5h-.708a1.75 1.75 0 0 1 -1.75-1.75zm41.668 49.5a9.834 9.834 0 0 1 -2.181 4.625h7.138a1.75 1.75 0 0 1 0 3.5h-105a1.75 1.75 0 0 1 0-3.5h24.113a9.834 9.834 0 0 1 -2.181-4.625h-6.932a1.75 1.75 0 0 1 -1.75-1.75v-15.979h-5.584a1.75 1.75 0 1 1 0-3.5h21a1.75 1.75 0 0 1 0 3.5h-11.916v14.229h5.183a9.87 9.87 0 1 1 17.24 8.125h43.631a9.834 9.834 0 0 1 -2.181-4.625h-33.79a1.75 1.75 0 1 1 0-3.5h27.08v-44.25h-5.913a1.75 1.75 0 0 1 0-3.5h7.667a1.75 1.75 0 0 1 1.75 1.75v10.583h15.5a1.749 1.749 0 0 1 1.444.762l12.083 17.667a1.748 1.748 0 0 1 .306.988v17.75a1.75 1.75 0 0 1 -1.75 1.75zm-22.63-35.417v31.917h3.206a9.865 9.865 0 0 1 19.421 0h3.207v-15.46l-11.253-16.457zm-45.769 40.042a6.375 6.375 0 1 0 -6.375-6.375 6.382 6.382 0 0 0 6.375 6.375zm58.689 0a6.375 6.375 0 1 0 -6.375-6.375 6.382 6.382 0 0 0 6.375 6.375zm-10.958-25.25v-11.25a1.75 1.75 0 0 1 1.75-1.75h8.788a1.75 1.75 0 0 1 1.429.739l7.958 11.25a1.75 1.75 0 0 1 -1.429 2.761h-16.746a1.75 1.75 0 0 1 -1.75-1.75zm3.5-1.75h11.618l-5.481-7.75h-6.137zm-82.875-14.042h21a1.75 1.75 0 1 0 0-3.5h-4.25v-7.833h36.542a1.75 1.75 0 0 0 0-3.5h-38.292a1.75 1.75 0 0 0 -1.75 1.75v9.583h-13.25a1.75 1.75 0 0 0 0 3.5zm7.667 2.729a1.75 1.75 0 1 0 0 3.5h21a1.75 1.75 0 1 0 0-3.5zm-7.667 9.729h21a1.75 1.75 0 0 0 0-3.5h-21a1.75 1.75 0 0 0 0 3.5z" fill="url(#linear-gradient)" data-original="url(#linear-gradient)" style="" class=""/></g></svg>
