<svg id="Capa_1" enable-background="new 0 0 512 512" height="512" viewBox="0 0 512 512" width="512" xmlns="http://www.w3.org/2000/svg"><g id="Outline_43_" fill="#233d91"><path d="m467.63 236.174-40.116-60.174h-85.854l5.596-36h-36.63c-3.777-38.123-36.026-68-75.125-68s-71.348 29.877-75.125 68h-92.876v15h92.875c3.777 38.123 36.026 68 75.125 68s71.348-29.877 75.125-68h19.119l-27.669 178h-140.107c-27.479-42.694-89.522-42.593-116.937 0h-45.031v45h34.411c3.753 34.807 33.301 62 69.089 62s65.336-27.193 69.089-62h142.822c3.753 34.807 33.301 62 69.089 62s65.336-27.193 69.089-62h58.411c0-13.771 0-82.162 0-93.5 0-25.353-19.552-46.224-44.37-48.326zm-232.13-28.174c-33.36 0-60.5-27.141-60.5-60.5s27.14-60.5 60.5-60.5 60.5 27.141 60.5 60.5-27.14 60.5-60.5 60.5zm-201.089 155h-19.411v-15h22.759c-1.644 4.789-2.788 9.807-3.348 15zm69.089 62c-30.051 0-54.5-24.448-54.5-54.5s24.449-54.5 54.5-54.5 54.5 24.448 54.5 54.5-24.449 54.5-54.5 54.5zm271.354-234h44.633l30 45h-82.133zm-59.443 172h-142.822c-.56-5.193-1.704-10.211-3.348-15h149.518c-1.644 4.789-2.788 9.807-3.348 15zm69.089 62c-30.051 0-54.5-24.448-54.5-54.5s24.449-54.5 54.5-54.5 54.5 24.448 54.5 54.5-24.449 54.5-54.5 54.5zm112.5-62h-43.411c-.56-5.193-1.704-10.211-3.348-15h46.759zm0-30h-54.032c-27.479-42.694-89.522-42.593-116.937 0h-8.776l22.072-142h20.318l-10 60h113.854c15.893 0 29.227 11.129 32.643 26h-26.642c-12.407 0-22.5 10.094-22.5 22.5s10.093 22.5 22.5 22.5h27.5zm0-26h-27.5c-9.926 0-9.916-15 0-15h27.5z"/><path d="m15.5 178h15v15h-15z"/><path d="m45.5 178h67v15h-67z"/><path d="m46.5 214.5h15v15h-15z"/><path d="m76.5 214.5h86v15h-86z"/><path d="m31.5 251h86v15h-86z"/><path d="m1.5 251h15v15h-15z"/><path d="m103.5 348c-12.407 0-22.5 10.094-22.5 22.5s10.093 22.5 22.5 22.5 22.5-10.094 22.5-22.5-10.093-22.5-22.5-22.5zm-7.5 22.5c0-9.926 15-9.916 15 0 0 4.136-15 9.916-15 0z"/><path d="m384.5 348c-12.407 0-22.5 10.094-22.5 22.5s10.093 22.5 22.5 22.5 22.5-10.094 22.5-22.5-10.093-22.5-22.5-22.5zm0 30c-9.926 0-9.916-15 0-15 9.926 0 9.916 15 0 15z"/><path d="m244 104.5h-15v54.5h35.5v-15h-20.5z"/></g></svg>